# xmcd
#
# Track frame offsets: 
#        150
#        12210
#        32891
#        49993
#        69834
#        89052
#        111690
#        127773
#        147867
#        156345
#        173945
#        192618
#        207097
#        228210
#        241575
#        254095
#        265513
#        306264
#
# Disc length: 4254 seconds
#
# Revision: 3
# Processed by: cddbd v1.5.2PL0 Copyright (c) Steve Scherf et al.
# Submitted via: ExactAudioCopyFreeDBPlugin 1.0
#
DISCID=01109c12
DTITLE=Kid Cudi - Indicud
DYEAR=2013
DGENRE=Rap
TTITLE0=The Resurrection Of Scott Mescudi
TTITLE1=Unfuckwittable
TTITLE2=Just What I Am (feat. King Chip)
TTITLE3=Young Lady (feat. Father John Misty)
TTITLE4=King Wizard
TTITLE5=Immortal
TTITLE6=Solo Dolo, Pt. II (feat. Kendrick Lamar)
TTITLE7=Girls (feat. Too $hort)
TTITLE8=New York City Rage Fest
TTITLE9=Red Eye (feat. Haim)
TTITLE10=Mad Solar
TTITLE11=Beez (feat. RZA)
TTITLE12=Brothers (feat. King Chip and A$AP Rocky)
TTITLE13=Burn Baby Burn
TTITLE14=Lord Of The Sad And Lonely
TTITLE15=Cold Blooded
TTITLE16=Afterwards (Bring Yo Friends) (feat. Michael Bolton and King Ch
TTITLE16=ip)
TTITLE17=The Flight Of The Moon Man
EXTD=
EXTT0=
EXTT1=
EXTT2=
EXTT3=
EXTT4=
EXTT5=
EXTT6=
EXTT7=
EXTT8=
EXTT9=
EXTT10=
EXTT11=
EXTT12=
EXTT13=
EXTT14=
EXTT15=
EXTT16=
EXTT17=
PLAYORDER=
